<?xml version="1.0" standalone="no"?>
<!DOCTYPE svg PUBLIC "-//W3C//DTD SVG 20010904//EN"
 "http://www.w3.org/TR/2001/REC-SVG-20010904/DTD/svg10.dtd">
<svg version="1.0" xmlns="http://www.w3.org/2000/svg"
 width="1024.000000pt" height="1024.000000pt" viewBox="0 0 1024.000000 1024.000000"
 preserveAspectRatio="xMidYMid meet">

<g transform="translate(0.000000,1024.000000) scale(0.100000,-0.100000)"
fill="#000000" stroke="none">
<path d="M4740 8926 c-190 -90 -504 -239 -699 -331 -621 -292 -2595 -1235
-2721 -1299 -54 -27 -71 -42 -97 -86 l-33 -54 0 -2070 0 -2070 21 -43 c12 -26
38 -55 62 -72 53 -35 446 -228 1147 -564 63 -30 243 -116 400 -192 157 -76
456 -220 665 -320 209 -101 504 -243 655 -317 809 -396 931 -452 980 -452 52
0 176 56 855 387 484 235 893 433 1300 627 479 229 564 270 1155 562 574 284
587 291 610 377 7 26 9 683 8 2093 l-3 2055 -30 49 c-30 49 -30 49 -385 226
-341 169 -869 423 -2035 978 -1287 613 -1433 680 -1472 680 -28 0 -128 -43
-383 -164z m517 -35 c70 -32 187 -87 258 -121 72 -34 279 -132 460 -217 182
-86 371 -175 421 -198 131 -62 664 -316 979 -467 149 -71 394 -189 545 -261
522 -249 968 -475 979 -496 8 -14 11 -635 11 -2054 0 -1923 -1 -2036 -17
-2055 -10 -11 -196 -107 -413 -213 -217 -105 -592 -288 -833 -405 -241 -118
-439 -214 -441 -214 -6 0 -695 -333 -1156 -558 -723 -352 -919 -444 -942 -436
-12 3 -263 123 -557 266 -669 325 -752 365 -1361 658 -1224 589 -1720 828
-1780 860 -37 20 -70 46 -77 60 -20 39 -19 4037 1 4083 15 38 -33 13 581 305
231 110 497 237 590 282 190 92 637 305 1640 780 374 177 745 353 825 391 80
38 148 69 152 69 4 0 65 -27 135 -59z"/>
<path d="M7417 4246 c-60 -47 -112 -86 -118 -86 -5 0 -9 27 -9 59 0 85 -9 91
-130 91 -88 0 -100 -2 -110 -19 -6 -11 -10 -88 -10 -178 l0 -159 -70 -63 c-40
-35 -70 -70 -70 -81 0 -31 21 -67 44 -78 20 -9 52 11 262 162 131 94 261 188
288 209 30 23 53 34 60 28 10 -7 292 -212 494 -358 71 -51 75 -52 102 -38 32
16 55 64 45 95 -6 19 -220 195 -497 409 -149 114 -147 114 -281 7z m214 -33
c13 -16 12 -17 -3 -4 -10 7 -18 15 -18 17 0 8 8 3 21 -13z m-341 -137 c0 -2
-8 -10 -17 -17 -16 -13 -17 -12 -4 4 13 16 21 21 21 13z"/>
<path d="M2096 4223 c-3 -3 -6 -40 -6 -82 l0 -76 64 -61 c61 -58 96 -108 96
-136 0 -18 -121 -50 -137 -36 -21 17 -30 0 -36 -71 l-6 -70 191 -343 c264
-476 235 -431 264 -412 13 9 31 13 40 10 8 -3 118 12 242 34 125 23 292 52
372 66 165 29 220 42 220 52 0 4 -7 16 -15 26 -13 18 -15 18 -15 3 0 -25 64
-12 -607 -122 -89 -14 -177 -25 -195 -23 l-33 3 0 58 c1 69 4 72 100 88 38 6
124 22 190 36 66 13 185 28 265 33 124 9 195 19 258 36 7 2 11 8 8 13 -7 10
16 36 36 44 10 3 8 10 -6 25 -10 12 -22 19 -26 17 -4 -3 -13 2 -20 10 -7 8 -9
15 -4 15 4 0 -10 18 -31 40 l-39 40 32 0 c18 0 32 2 32 4 0 2 -13 33 -30 69
-44 97 -69 166 -62 171 7 4 241 66 248 66 2 0 4 5 4 11 0 6 -7 8 -17 5 -9 -4
-20 -1 -25 6 -6 11 -8 10 -8 0 0 -7 -4 -11 -8 -8 -5 3 -168 -35 -362 -85 -239
-61 -363 -88 -382 -84 -20 5 -28 3 -28 -7 0 -10 -3 -9 -10 2 -13 20 -13 170 0
170 6 0 10 -12 10 -27 0 -24 1 -25 13 -10 18 24 60 39 302 105 353 97 416 113
425 107 4 -3 10 0 12 7 2 6 20 18 39 25 l34 13 -45 -6 c-25 -4 -180 -40 -345
-80 -165 -41 -310 -74 -322 -74 -12 0 -27 9 -33 20 -6 11 -16 20 -21 20 -6 0
-31 14 -56 30 -24 17 -46 30 -48 30 -2 0 -16 5 -32 12 -15 6 -32 12 -36 12
-11 1 -125 81 -198 139 -33 26 -62 47 -64 47 -2 0 -1 -10 3 -22 4 -17 -13 -7
-79 43 -100 78 -104 80 -113 72z m1151 -801 c13 -8 22 -136 10 -148 -10 -10
-853 -5 -881 6 -23 8 -26 15 -26 59 0 46 2 50 31 60 16 6 101 13 187 17 86 4
159 8 161 10 9 8 506 3 518 -4z"/>
<path d="M5468 4123 c12 -2 32 -2 45 0 12 2 2 4 -23 4 -25 0 -35 -2 -22 -4z"/>
<path d="M5287 4073 c-20 -20 -4 -32 41 -30 41 2 47 0 46 -18 -3 -39 -72 -414
-79 -424 -3 -6 -22 -11 -41 -11 -26 0 -34 -4 -34 -18 0 -15 6 -17 47 -12 38 4
50 10 59 30 6 14 28 123 49 242 43 248 43 248 -35 248 -25 0 -50 -3 -53 -7z"/>
<path d="M5535 4066 c-51 -22 -82 -120 -106 -343 -14 -123 -9 -158 23 -167 37
-10 208 -7 228 4 10 5 24 27 31 47 6 21 17 41 23 45 6 4 205 8 443 8 395 0
433 1 449 17 15 16 16 35 11 188 -6 167 -7 170 -32 193 l-26 22 -507 0 c-398
-1 -514 -4 -537 -14z m215 -196 c0 -172 0 -175 -22 -185 -21 -9 -40 -38 -52
-78 -5 -16 -17 -17 -113 -15 l-108 3 3 70 c5 99 39 293 60 335 17 35 17 35 97
40 44 3 92 5 107 5 l28 0 0 -175z m305 0 l0 -175 -132 -3 -133 -3 0 181 0 181
133 -3 132 -3 0 -175z m273 171 c9 -1 12 -43 12 -176 l0 -176 -122 3 -123 3
-3 165 c-1 90 0 170 2 177 5 11 110 13 234 4z m265 -15 c9 -23 20 -283 13
-310 -6 -26 -6 -26 -116 -26 l-110 0 0 175 0 175 104 0 c78 0 105 -3 109 -14z"/>
<path d="M7298 3643 c46 -2 118 -2 160 0 42 1 5 3 -83 3 -88 0 -123 -2 -77 -3z"/>
<path d="M5216 3424 c-9 -35 3 -54 35 -54 36 0 60 40 39 65 -19 23 -68 16 -74
-11z"/>
<path d="M5446 3405 c-51 -20 -105 -61 -118 -91 -10 -21 -18 -24 -60 -24 l-48
0 0 -54 c0 -64 9 -74 74 -78 46 -3 49 -5 61 -42 19 -55 45 -87 91 -113 61 -35
112 -39 172 -13 62 27 88 53 111 116 l19 49 224 3 224 2 23 -55 c26 -62 72
-106 130 -124 56 -16 81 -14 139 15 58 29 84 59 102 122 l13 42 52 0 c28 0 56
5 63 12 7 7 12 36 12 65 l0 53 -49 0 c-47 0 -53 3 -103 53 -38 38 -66 57 -101
66 -100 28 -221 -10 -270 -84 l-22 -35 -211 0 -211 0 -32 40 c-18 22 -51 50
-74 62 -54 27 -157 34 -211 13z m177 -165 c77 -85 -32 -212 -129 -151 -19 12
-37 34 -44 55 -10 31 -9 42 7 73 34 71 113 81 166 23z m860 0 c74 -82 -23
-206 -123 -155 -37 19 -64 74 -55 115 6 27 37 62 65 73 32 13 85 -2 113 -33z"/>
<path d="M7513 3335 c0 -33 2 -45 4 -27 2 18 2 45 0 60 -2 15 -4 0 -4 -33z"/>
<path d="M7411 3307 c-8 -10 -7 -19 4 -33 13 -18 15 -18 31 -2 18 18 13 48 -9
48 -8 0 -20 -6 -26 -13z"/>
<path d="M6963 3260 c-13 -5 -23 -12 -23 -15 0 -4 5 -3 10 0 6 3 19 3 30 0 18
-6 20 -15 20 -112 0 -96 -2 -105 -20 -110 -11 -3 -20 -12 -20 -21 0 -10 -7 -7
-26 11 -16 16 -28 43 -34 74 -6 40 -8 42 -9 15 -2 -49 24 -99 61 -122 58 -35
58 -35 58 135 0 164 0 164 -47 145z"/>
<path d="M8091 3254 c0 -11 3 -14 6 -6 3 7 2 16 -1 19 -3 4 -6 -2 -5 -13z"/>
<path d="M7514 3160 c0 -58 1 -81 3 -52 2 28 2 76 0 105 -2 28 -3 5 -3 -53z"/>
<path d="M8110 3256 c0 -2 7 -7 16 -10 8 -3 12 -2 9 4 -6 10 -25 14 -25 6z"/>
<path d="M8093 3020 c0 -30 2 -43 4 -27 2 15 2 39 0 55 -2 15 -4 2 -4 -28z"/>
<path d="M8151 2994 c-19 -13 -27 -24 -19 -24 8 0 25 11 38 25 29 31 25 30
-19 -1z"/>
</g>
</svg>
